<?xml version="1.0" standalone="no"?>
<!DOCTYPE svg PUBLIC "-//W3C//DTD SVG 20010904//EN"
 "http://www.w3.org/TR/2001/REC-SVG-20010904/DTD/svg10.dtd">
<svg version="1.0" xmlns="http://www.w3.org/2000/svg"
 width="299.000000pt" height="363.000000pt" viewBox="0 0 299.000000 363.000000"
 preserveAspectRatio="xMidYMid meet">
<metadata>
Created by potrace 1.16, written by Peter Selinger 2001-2019
</metadata>
<g transform="translate(0.000000,363.000000) scale(0.100000,-0.100000)"
fill="#000000" stroke="none">
<path d="M2882 3618 c-8 -11 -73 -1338 -72 -1497 l0 -54 37 6 c20 4 40 10 44
14 4 4 21 328 38 718 17 391 32 736 35 768 l4 57 -38 0 c-21 0 -42 -6 -48 -12z"/>
<path d="M352 3508 c-29 -37 -133 -923 -162 -1383 -17 -282 -12 -261 -70 -268
-65 -8 -108 -31 -116 -64 -12 -46 5 -58 90 -61 l77 -3 -7 -57 c-10 -75 -8
-1134 3 -1282 8 -114 8 -115 34 -118 14 -2 34 5 46 15 19 17 20 25 12 178 -9
200 -11 1022 -3 1171 l7 111 166 55 c147 50 362 135 534 212 l57 26 1 -368 c1
-202 4 -491 8 -642 l6 -275 28 -3 c22 -3 37 6 67 36 35 35 40 46 40 85 0 57
-8 77 -30 77 -16 0 -18 37 -24 561 -6 464 -5 563 6 570 44 28 307 117 443 151
171 43 205 57 205 88 0 16 -7 20 -31 20 -76 0 -349 -74 -546 -148 l-83 -31 -1
102 c-1 56 -5 291 -8 522 l-6 420 -34 3 c-18 2 -39 -2 -45 -8 -8 -8 -11 -164
-11 -547 l0 -537 -135 -59 c-199 -87 -448 -184 -531 -207 -41 -11 -74 -20 -74
-20 -3 0 20 349 36 535 30 362 106 1008 134 1133 5 20 2 22 -34 22 -21 0 -43
-6 -49 -12z"/>
<path d="M2457 2228 c-10 -9 -25 -58 -41 -140 -51 -252 -126 -430 -197 -469
-43 -22 -106 61 -124 164 -7 34 -10 37 -39 37 -18 0 -39 -6 -48 -12 -8 -7 -32
-58 -53 -113 -58 -153 -109 -258 -171 -353 -99 -154 -159 -199 -225 -172 -56
24 -91 119 -105 286 l-7 82 32 7 c52 11 147 82 201 150 77 96 115 185 115 268
0 66 -1 70 -37 103 -35 31 -43 34 -100 34 -106 -1 -171 -43 -222 -146 -33 -65
-64 -196 -72 -301 -6 -72 -9 -82 -30 -92 -29 -13 -31 -31 -4 -38 16 -4 20 -14
20 -52 0 -66 18 -178 36 -234 58 -175 243 -196 379 -45 87 97 183 257 245 410
l23 57 28 -39 c49 -67 119 -87 194 -56 50 21 120 99 157 177 18 37 34 66 36
64 2 -2 8 -93 12 -201 l8 -198 -46 -40 c-154 -133 -213 -239 -313 -560 -75
-243 -102 -386 -97 -526 3 -99 7 -122 28 -164 14 -28 42 -64 63 -80 36 -28 46
-31 126 -34 73 -3 95 0 128 16 87 45 136 130 173 302 36 165 44 301 43 698
l-1 383 57 42 c31 23 125 89 209 146 156 107 184 138 115 129 -26 -4 -90 -41
-208 -119 -93 -63 -173 -115 -176 -117 -3 -1 -11 131 -18 295 -6 164 -14 335
-18 381 -6 81 -6 82 -32 82 -15 0 -35 -6 -44 -12z m-767 -228 c25 -25 25 -32
0 -111 -37 -120 -131 -248 -213 -290 l-39 -20 7 78 c9 106 24 181 45 223 10
19 18 37 17 40 -1 23 21 54 56 75 51 30 100 32 127 5z m786 -1175 c-7 -419
-22 -550 -79 -663 -80 -161 -261 -106 -297 91 -19 100 26 325 121 611 59 177
130 320 196 396 l48 54 8 -79 c5 -44 6 -228 3 -410z"/>
</g>
</svg>
